<mxfile host="app.diagrams.net" modified="2024-07-16T00:00:26.177Z" agent="Mozilla/5.0 (X11; Linux x86_64) AppleWebKit/537.36 (KHTML, like Gecko) Chrome/125.0.0.0 Safari/537.36" etag="uRdZKfwQii_ksd7heW59" version="24.6.5" type="github">
  <diagram name="Page-1" id="B3n7cMCDJa_Oo_2B65qS">
    <mxGraphModel dx="1362" dy="793" grid="1" gridSize="10" guides="1" tooltips="1" connect="1" arrows="1" fold="1" page="1" pageScale="1" pageWidth="850" pageHeight="1100" math="0" shadow="0">
      <root>
        <mxCell id="0" />
        <mxCell id="1" parent="0" />
        <mxCell id="TQra984xZXCKqycMd3ij-1" value="&#39;O&#39;" style="rounded=0;whiteSpace=wrap;html=1;strokeWidth=3;fontSize=36;fontStyle=1;fillColor=#d0cee2;strokeColor=#56517e;fontColor=#FF3333;" vertex="1" parent="1">
          <mxGeometry x="80" y="160" width="80" height="80" as="geometry" />
        </mxCell>
        <mxCell id="TQra984xZXCKqycMd3ij-34" value="&#39;i&#39;" style="rounded=0;whiteSpace=wrap;html=1;strokeWidth=3;fontSize=36;fontStyle=1;fillColor=#d0cee2;strokeColor=#56517e;fontColor=#FF3333;" vertex="1" parent="1">
          <mxGeometry x="160" y="160" width="80" height="80" as="geometry" />
        </mxCell>
        <mxCell id="TQra984xZXCKqycMd3ij-35" value="&#39;,&#39;" style="rounded=0;whiteSpace=wrap;html=1;strokeWidth=3;fontSize=36;fontStyle=1;fillColor=#d0cee2;strokeColor=#56517e;fontColor=#FF3333;" vertex="1" parent="1">
          <mxGeometry x="240" y="160" width="80" height="80" as="geometry" />
        </mxCell>
        <mxCell id="TQra984xZXCKqycMd3ij-36" value="&amp;nbsp;&#39; &#39;" style="rounded=0;whiteSpace=wrap;html=1;strokeWidth=3;fontSize=36;fontStyle=1;fillColor=#d0cee2;strokeColor=#56517e;fontColor=#FF3333;" vertex="1" parent="1">
          <mxGeometry x="320" y="160" width="80" height="80" as="geometry" />
        </mxCell>
        <mxCell id="TQra984xZXCKqycMd3ij-37" value="&#39;1&#39;" style="rounded=0;whiteSpace=wrap;html=1;strokeWidth=3;fontSize=36;fontStyle=1;fillColor=#d0cee2;strokeColor=#56517e;fontColor=#FF3333;" vertex="1" parent="1">
          <mxGeometry x="400" y="160" width="80" height="80" as="geometry" />
        </mxCell>
        <mxCell id="TQra984xZXCKqycMd3ij-38" value="&#39;8&#39;" style="rounded=0;whiteSpace=wrap;html=1;strokeWidth=3;fontSize=36;fontStyle=1;fillColor=#d0cee2;strokeColor=#56517e;fontColor=#FF3333;" vertex="1" parent="1">
          <mxGeometry x="480" y="160" width="80" height="80" as="geometry" />
        </mxCell>
        <mxCell id="TQra984xZXCKqycMd3ij-39" value="&#39;\0&#39;" style="rounded=0;whiteSpace=wrap;html=1;strokeWidth=3;fontSize=36;fontStyle=1;fillColor=#d0cee2;strokeColor=#56517e;fontColor=#333333;" vertex="1" parent="1">
          <mxGeometry x="560" y="160" width="80" height="80" as="geometry" />
        </mxCell>
        <mxCell id="TQra984xZXCKqycMd3ij-40" value="" style="rounded=0;whiteSpace=wrap;html=1;strokeWidth=3;fontSize=36;fontStyle=1;fillColor=#d0cee2;strokeColor=#56517e;fontColor=#FF3333;" vertex="1" parent="1">
          <mxGeometry x="640" y="160" width="80" height="80" as="geometry" />
        </mxCell>
        <mxCell id="TQra984xZXCKqycMd3ij-42" value="&#39;B&#39;" style="rounded=0;whiteSpace=wrap;html=1;strokeWidth=3;fontSize=36;fontStyle=1;fillColor=#d0cee2;strokeColor=#56517e;fontColor=#FF3333;" vertex="1" parent="1">
          <mxGeometry x="80" y="240" width="80" height="80" as="geometry" />
        </mxCell>
        <mxCell id="TQra984xZXCKqycMd3ij-43" value="&#39;r&#39;" style="rounded=0;whiteSpace=wrap;html=1;strokeWidth=3;fontSize=36;fontStyle=1;fillColor=#d0cee2;strokeColor=#56517e;fontColor=#FF3333;" vertex="1" parent="1">
          <mxGeometry x="160" y="240" width="80" height="80" as="geometry" />
        </mxCell>
        <mxCell id="TQra984xZXCKqycMd3ij-44" value="&#39;a&#39;" style="rounded=0;whiteSpace=wrap;html=1;strokeWidth=3;fontSize=36;fontStyle=1;fillColor=#d0cee2;strokeColor=#56517e;fontColor=#FF3333;" vertex="1" parent="1">
          <mxGeometry x="240" y="240" width="80" height="80" as="geometry" />
        </mxCell>
        <mxCell id="TQra984xZXCKqycMd3ij-45" value="&#39;s&#39;" style="rounded=0;whiteSpace=wrap;html=1;strokeWidth=3;fontSize=36;fontStyle=1;fillColor=#d0cee2;strokeColor=#56517e;fontColor=#FF3333;" vertex="1" parent="1">
          <mxGeometry x="320" y="240" width="80" height="80" as="geometry" />
        </mxCell>
        <mxCell id="TQra984xZXCKqycMd3ij-46" value="&#39;i&#39;" style="rounded=0;whiteSpace=wrap;html=1;strokeWidth=3;fontSize=36;fontStyle=1;fillColor=#d0cee2;strokeColor=#56517e;fontColor=#FF3333;" vertex="1" parent="1">
          <mxGeometry x="400" y="240" width="80" height="80" as="geometry" />
        </mxCell>
        <mxCell id="TQra984xZXCKqycMd3ij-47" value="&#39;l&#39;" style="rounded=0;whiteSpace=wrap;html=1;strokeWidth=3;fontSize=36;fontStyle=1;fillColor=#d0cee2;strokeColor=#56517e;fontColor=#FF3333;" vertex="1" parent="1">
          <mxGeometry x="480" y="240" width="80" height="80" as="geometry" />
        </mxCell>
        <mxCell id="TQra984xZXCKqycMd3ij-48" value="&#39;\0&#39;" style="rounded=0;whiteSpace=wrap;html=1;strokeWidth=3;fontSize=36;fontStyle=1;fillColor=#d0cee2;strokeColor=#56517e;fontColor=#333333;" vertex="1" parent="1">
          <mxGeometry x="560" y="240" width="80" height="80" as="geometry" />
        </mxCell>
        <mxCell id="TQra984xZXCKqycMd3ij-49" value="" style="rounded=0;whiteSpace=wrap;html=1;strokeWidth=3;fontSize=36;fontStyle=1;fillColor=#d0cee2;strokeColor=#56517e;fontColor=#FF3333;" vertex="1" parent="1">
          <mxGeometry x="640" y="240" width="80" height="80" as="geometry" />
        </mxCell>
        <mxCell id="TQra984xZXCKqycMd3ij-50" value="&#39;p&#39;" style="rounded=0;whiteSpace=wrap;html=1;strokeWidth=3;fontSize=36;fontStyle=1;fillColor=#d0cee2;strokeColor=#56517e;fontColor=#FF3333;" vertex="1" parent="1">
          <mxGeometry x="80" y="320" width="80" height="80" as="geometry" />
        </mxCell>
        <mxCell id="TQra984xZXCKqycMd3ij-51" value="&#39;a&#39;" style="rounded=0;whiteSpace=wrap;html=1;strokeWidth=3;fontSize=36;fontStyle=1;fillColor=#d0cee2;strokeColor=#56517e;fontColor=#FF3333;" vertex="1" parent="1">
          <mxGeometry x="160" y="320" width="80" height="80" as="geometry" />
        </mxCell>
        <mxCell id="TQra984xZXCKqycMd3ij-52" value="&#39;i&#39;" style="rounded=0;whiteSpace=wrap;html=1;strokeWidth=3;fontSize=36;fontStyle=1;fillColor=#d0cee2;strokeColor=#56517e;fontColor=#FF3333;" vertex="1" parent="1">
          <mxGeometry x="240" y="320" width="80" height="80" as="geometry" />
        </mxCell>
        <mxCell id="TQra984xZXCKqycMd3ij-53" value="&#39;a&#39;" style="rounded=0;whiteSpace=wrap;html=1;strokeWidth=3;fontSize=36;fontStyle=1;fillColor=#d0cee2;strokeColor=#56517e;fontColor=#FF3333;" vertex="1" parent="1">
          <mxGeometry x="320" y="320" width="80" height="80" as="geometry" />
        </mxCell>
        <mxCell id="TQra984xZXCKqycMd3ij-54" value="&#39;\0&#39;" style="rounded=0;whiteSpace=wrap;html=1;strokeWidth=3;fontSize=36;fontStyle=1;fillColor=#d0cee2;strokeColor=#56517e;fontColor=#333333;" vertex="1" parent="1">
          <mxGeometry x="400" y="320" width="80" height="80" as="geometry" />
        </mxCell>
        <mxCell id="TQra984xZXCKqycMd3ij-55" value="" style="rounded=0;whiteSpace=wrap;html=1;strokeWidth=3;fontSize=36;fontStyle=1;fillColor=#d0cee2;strokeColor=#56517e;fontColor=#FF3333;" vertex="1" parent="1">
          <mxGeometry x="480" y="320" width="80" height="80" as="geometry" />
        </mxCell>
        <mxCell id="TQra984xZXCKqycMd3ij-56" value="" style="rounded=0;whiteSpace=wrap;html=1;strokeWidth=3;fontSize=36;fontStyle=1;fillColor=#d0cee2;strokeColor=#56517e;fontColor=#FF3333;" vertex="1" parent="1">
          <mxGeometry x="560" y="320" width="80" height="80" as="geometry" />
        </mxCell>
        <mxCell id="TQra984xZXCKqycMd3ij-57" value="" style="rounded=0;whiteSpace=wrap;html=1;strokeWidth=3;fontSize=36;fontStyle=1;fillColor=#d0cee2;strokeColor=#56517e;fontColor=#FF3333;" vertex="1" parent="1">
          <mxGeometry x="640" y="320" width="80" height="80" as="geometry" />
        </mxCell>
        <mxCell id="TQra984xZXCKqycMd3ij-58" value="&#39;0&#39;" style="rounded=0;whiteSpace=wrap;html=1;strokeWidth=3;fontSize=36;fontStyle=1;fillColor=#d0cee2;strokeColor=#56517e;fontColor=#FF3333;" vertex="1" parent="1">
          <mxGeometry x="80" y="400" width="80" height="80" as="geometry" />
        </mxCell>
        <mxCell id="TQra984xZXCKqycMd3ij-59" value="&#39;1&#39;" style="rounded=0;whiteSpace=wrap;html=1;strokeWidth=3;fontSize=36;fontStyle=1;fillColor=#d0cee2;strokeColor=#56517e;fontColor=#FF3333;" vertex="1" parent="1">
          <mxGeometry x="160" y="400" width="80" height="80" as="geometry" />
        </mxCell>
        <mxCell id="TQra984xZXCKqycMd3ij-60" value="&#39;2&#39;" style="rounded=0;whiteSpace=wrap;html=1;strokeWidth=3;fontSize=36;fontStyle=1;fillColor=#d0cee2;strokeColor=#56517e;fontColor=#FF3333;" vertex="1" parent="1">
          <mxGeometry x="240" y="400" width="80" height="80" as="geometry" />
        </mxCell>
        <mxCell id="TQra984xZXCKqycMd3ij-61" value="&#39;-&#39;" style="rounded=0;whiteSpace=wrap;html=1;strokeWidth=3;fontSize=36;fontStyle=1;fillColor=#d0cee2;strokeColor=#56517e;fontColor=#FF3333;" vertex="1" parent="1">
          <mxGeometry x="320" y="400" width="80" height="80" as="geometry" />
        </mxCell>
        <mxCell id="TQra984xZXCKqycMd3ij-62" value="&#39;4&#39;" style="rounded=0;whiteSpace=wrap;html=1;strokeWidth=3;fontSize=36;fontStyle=1;fillColor=#d0cee2;strokeColor=#56517e;fontColor=#FF3333;" vertex="1" parent="1">
          <mxGeometry x="400" y="400" width="80" height="80" as="geometry" />
        </mxCell>
        <mxCell id="TQra984xZXCKqycMd3ij-63" value="&#39;9&#39;" style="rounded=0;whiteSpace=wrap;html=1;strokeWidth=3;fontSize=36;fontStyle=1;fillColor=#d0cee2;strokeColor=#56517e;fontColor=#FF3333;" vertex="1" parent="1">
          <mxGeometry x="480" y="400" width="80" height="80" as="geometry" />
        </mxCell>
        <mxCell id="TQra984xZXCKqycMd3ij-64" value="&#39;1&#39;" style="rounded=0;whiteSpace=wrap;html=1;strokeWidth=3;fontSize=36;fontStyle=1;fillColor=#d0cee2;strokeColor=#56517e;fontColor=#FF3333;" vertex="1" parent="1">
          <mxGeometry x="560" y="400" width="80" height="80" as="geometry" />
        </mxCell>
        <mxCell id="TQra984xZXCKqycMd3ij-65" value="&#39;\0&#39;" style="rounded=0;whiteSpace=wrap;html=1;strokeWidth=3;fontSize=36;fontStyle=1;fillColor=#d0cee2;strokeColor=#56517e;fontColor=#333333;" vertex="1" parent="1">
          <mxGeometry x="640" y="400" width="80" height="80" as="geometry" />
        </mxCell>
        <mxCell id="TQra984xZXCKqycMd3ij-66" value="0" style="text;html=1;align=center;verticalAlign=middle;whiteSpace=wrap;rounded=0;fontSize=32;fontStyle=3" vertex="1" parent="1">
          <mxGeometry x="90" y="120" width="60" height="30" as="geometry" />
        </mxCell>
        <mxCell id="TQra984xZXCKqycMd3ij-67" value="1" style="text;html=1;align=center;verticalAlign=middle;whiteSpace=wrap;rounded=0;fontSize=32;fontStyle=3" vertex="1" parent="1">
          <mxGeometry x="170" y="120" width="60" height="30" as="geometry" />
        </mxCell>
        <mxCell id="TQra984xZXCKqycMd3ij-68" value="2" style="text;html=1;align=center;verticalAlign=middle;whiteSpace=wrap;rounded=0;fontSize=32;fontStyle=3" vertex="1" parent="1">
          <mxGeometry x="250" y="120" width="60" height="30" as="geometry" />
        </mxCell>
        <mxCell id="TQra984xZXCKqycMd3ij-69" value="3" style="text;html=1;align=center;verticalAlign=middle;whiteSpace=wrap;rounded=0;fontSize=32;fontStyle=3" vertex="1" parent="1">
          <mxGeometry x="330" y="120" width="60" height="30" as="geometry" />
        </mxCell>
        <mxCell id="TQra984xZXCKqycMd3ij-70" value="4" style="text;html=1;align=center;verticalAlign=middle;whiteSpace=wrap;rounded=0;fontSize=32;fontStyle=3" vertex="1" parent="1">
          <mxGeometry x="410" y="120" width="60" height="30" as="geometry" />
        </mxCell>
        <mxCell id="TQra984xZXCKqycMd3ij-71" value="5" style="text;html=1;align=center;verticalAlign=middle;whiteSpace=wrap;rounded=0;fontSize=32;fontStyle=3" vertex="1" parent="1">
          <mxGeometry x="490" y="120" width="60" height="30" as="geometry" />
        </mxCell>
        <mxCell id="TQra984xZXCKqycMd3ij-72" value="6" style="text;html=1;align=center;verticalAlign=middle;whiteSpace=wrap;rounded=0;fontSize=32;fontStyle=3" vertex="1" parent="1">
          <mxGeometry x="570" y="120" width="60" height="30" as="geometry" />
        </mxCell>
        <mxCell id="TQra984xZXCKqycMd3ij-73" value="7" style="text;html=1;align=center;verticalAlign=middle;whiteSpace=wrap;rounded=0;fontSize=32;fontStyle=3" vertex="1" parent="1">
          <mxGeometry x="650" y="120" width="60" height="30" as="geometry" />
        </mxCell>
        <mxCell id="TQra984xZXCKqycMd3ij-74" value="0" style="text;html=1;align=center;verticalAlign=middle;whiteSpace=wrap;rounded=0;fontSize=32;fontStyle=3" vertex="1" parent="1">
          <mxGeometry x="10" y="185" width="60" height="30" as="geometry" />
        </mxCell>
        <mxCell id="TQra984xZXCKqycMd3ij-75" value="1" style="text;html=1;align=center;verticalAlign=middle;whiteSpace=wrap;rounded=0;fontSize=32;fontStyle=3" vertex="1" parent="1">
          <mxGeometry x="10" y="265" width="60" height="30" as="geometry" />
        </mxCell>
        <mxCell id="TQra984xZXCKqycMd3ij-76" value="2" style="text;html=1;align=center;verticalAlign=middle;whiteSpace=wrap;rounded=0;fontSize=32;fontStyle=3" vertex="1" parent="1">
          <mxGeometry x="10" y="345" width="60" height="30" as="geometry" />
        </mxCell>
        <mxCell id="TQra984xZXCKqycMd3ij-77" value="3" style="text;html=1;align=center;verticalAlign=middle;whiteSpace=wrap;rounded=0;fontSize=32;fontStyle=3" vertex="1" parent="1">
          <mxGeometry x="10" y="425" width="60" height="30" as="geometry" />
        </mxCell>
      </root>
    </mxGraphModel>
  </diagram>
</mxfile>
